<svg width="23" height="23" viewBox="0 0 23 23" fill="none" xmlns="http://www.w3.org/2000/svg">
<g id="icn bxs-star">
<path id="Vector" d="M21.1115 8.41927C21.0539 8.24946 20.9478 8.10025 20.8063 7.99006C20.6648 7.87987 20.4941 7.81353 20.3154 7.79922L15.0862 7.38371L12.8234 2.3747C12.7513 2.21337 12.6341 2.07634 12.4859 1.98016C12.3377 1.88397 12.1648 1.83274 11.9881 1.83264C11.8114 1.83254 11.6385 1.88359 11.4901 1.97961C11.3418 2.07563 11.2244 2.21253 11.1522 2.37378L8.88938 7.38371L3.66023 7.79922C3.48454 7.81314 3.31657 7.87738 3.17644 7.98425C3.0363 8.09113 2.92992 8.23612 2.87002 8.40187C2.81013 8.56762 2.79925 8.74712 2.8387 8.91889C2.87815 9.09066 2.96625 9.24743 3.09246 9.37044L6.95677 13.1375L5.59009 19.0555C5.54859 19.2347 5.56189 19.4221 5.62826 19.5936C5.69463 19.7651 5.81102 19.9127 5.9623 20.0172C6.11359 20.1217 6.2928 20.1783 6.47667 20.1797C6.66054 20.1811 6.84059 20.1272 6.99345 20.025L11.9878 16.6955L16.9821 20.025C17.1384 20.1288 17.3226 20.1822 17.5101 20.1781C17.6976 20.1739 17.8794 20.1125 18.0309 20.002C18.1824 19.8916 18.2965 19.7373 18.3578 19.5601C18.419 19.3828 18.4246 19.1911 18.3736 19.0106L16.696 13.1403L20.8565 9.39612C21.129 9.15031 21.2289 8.7669 21.1115 8.41927Z" fill="#F3CD03"/>
</g>
</svg>
